<svg width="640" height="800" viewBox="0 0 640 800" fill="none" xmlns="http://www.w3.org/2000/svg">
  <rect width="640" height="800" rx="48" fill="#F4EFE7"/>
  <circle cx="320" cy="300" r="210" fill="#E6D8C6"/>
  <path d="M320 166C246.651 166 187 225.651 187 299C187 339.506 205.42 376.486 234.872 401.101C247.868 356.022 286.196 324 332 324C377.804 324 416.132 356.022 429.128 401.101C458.58 376.486 477 339.506 477 299C477 225.651 417.349 166 344 166H320Z" fill="#6E5140"/>
  <circle cx="320" cy="292" r="92" fill="#F6E8D8"/>
  <path d="M184 663C184 564.693 263.693 485 362 485H278C376.307 485 456 564.693 456 663V706H184V663Z" fill="#6E5140"/>
  <path d="M270 282C270 254.386 292.386 232 320 232C347.614 232 370 254.386 370 282V314C370 341.614 347.614 364 320 364C292.386 364 270 341.614 270 314V282Z" fill="#F6E8D8"/>
</svg>
